<?xml version="1.0" encoding="utf-8"?>
<!-- Generator: Adobe Illustrator 16.0.0, SVG Export Plug-In . SVG Version: 6.00 Build 0)  -->
<!DOCTYPE svg PUBLIC "-//W3C//DTD SVG 1.1//EN" "http://www.w3.org/Graphics/SVG/1.1/DTD/svg11.dtd">
<svg version="1.1" id="Layer_1" xmlns="http://www.w3.org/2000/svg" xmlns:xlink="http://www.w3.org/1999/xlink" x="0px" y="0px"
	 width="33.36px" height="25.44px" viewBox="0 0 33.36 25.44" enable-background="new 0 0 33.36 25.44" xml:space="preserve">
<path fill="#7E1416" d="M30.104,14.079h-4.826c0.458-0.893,0.686-1.976,0.686-3.261C25.963,4.853,21.034,0,14.975,0
	C12.172,0,9.55,1.016,7.517,2.875C6.889,2.467,6.141,2.229,5.338,2.229c-2.208,0-4.003,1.792-4.003,3.995
	c0,0.859,0.278,1.687,0.779,2.367C0.811,9.861,0,11.633,0,13.592c0,1.22,0.313,2.124,0.957,2.76
	c1.142,1.129,3.001,1.112,5.154,1.091c0.585-0.006,4.203-0.019,4.884-0.137c1.261,0.114,2.656,0.131,3.98,0.131
	c2.819,0,5.515-0.069,7.52-0.902c0.591-0.246,1.105-0.549,1.543-0.913h6.065c0.943,0,1.71,0.766,1.71,1.707s-0.767,1.707-1.71,1.707
	H10.859c-1.75,0-3.188,1.42-3.208,3.167c-0.01,0.861,0.32,1.674,0.927,2.287c0.607,0.613,1.417,0.95,2.281,0.95h11.336
	c0.427,0,0.773-0.346,0.773-0.771c0-0.426-0.346-0.771-0.773-0.771H10.859c-0.447,0-0.867-0.175-1.182-0.493
	c-0.314-0.317-0.485-0.738-0.48-1.184c0.01-0.905,0.755-1.641,1.662-1.641h19.245c1.795,0,3.256-1.458,3.256-3.25
	C33.36,15.537,31.899,14.079,30.104,14.079z M2.881,6.224c0-1.352,1.102-2.452,2.457-2.452c1.354,0,2.457,1.1,2.457,2.452
	c0,0.141-0.012,0.278-0.035,0.414c-0.249-0.027-0.5-0.04-0.752-0.04c-1.347,0-2.605,0.381-3.674,1.041
	C3.042,7.229,2.881,6.735,2.881,6.224z M7.917,15.899c-0.297-0.002-0.602-0.005-0.911-0.005s-0.613,0.003-0.911,0.005
	c-1.807,0.018-3.367,0.033-4.052-0.644c-0.335-0.332-0.499-0.876-0.499-1.664c0-3.006,2.45-5.451,5.461-5.451
	c0.657,0,1.3,0.116,1.912,0.344c0.244,0.091,0.518,0.053,0.728-0.101c0.21-0.153,0.329-0.402,0.315-0.662
	C9.959,7.68,9.958,7.637,9.958,7.594c0-1.353,1.102-2.452,2.457-2.452c1.355,0,2.457,1.1,2.457,2.452
	c0,1.306-1.022,2.381-2.327,2.449c-0.261,0.013-0.497,0.157-0.628,0.382s-0.14,0.501-0.023,0.733
	c0.381,0.761,0.574,1.58,0.574,2.433c0,0.788-0.163,1.332-0.499,1.664C11.285,15.932,9.724,15.917,7.917,15.899z M21.901,15.11
	c-1.742,0.724-4.27,0.784-6.926,0.784c-0.506,0-1.022-0.003-1.535-0.012c0.385-0.588,0.574-1.343,0.574-2.29
	c0-0.757-0.119-1.494-0.354-2.199c1.608-0.523,2.757-2.032,2.757-3.798c0-2.203-1.795-3.995-4.002-3.995
	c-1.311,0-2.476,0.632-3.206,1.606c-0.12-0.455-0.319-0.877-0.581-1.254c1.738-1.558,3.967-2.408,6.348-2.408
	c5.207,0,9.442,4.161,9.442,9.275C24.417,13.063,23.641,14.387,21.901,15.11z"/>
<path fill="#7E1416" d="M8.192,10.666c0.577,0,1.043,0.466,1.043,1.042s-0.467,1.042-1.043,1.042c-0.576,0-1.043-0.466-1.043-1.042
	S7.616,10.666,8.192,10.666z"/>
</svg>
