<?xml version="1.0" encoding="utf-8"?>
<!-- Generator: Adobe Illustrator 16.0.0, SVG Export Plug-In . SVG Version: 6.00 Build 0)  -->
<!DOCTYPE svg PUBLIC "-//W3C//DTD SVG 1.1//EN" "http://www.w3.org/Graphics/SVG/1.1/DTD/svg11.dtd">
<svg version="1.1" id="Layer_1" xmlns="http://www.w3.org/2000/svg" xmlns:xlink="http://www.w3.org/1999/xlink" x="0px" y="0px"
	 width="30px" height="26.64px" viewBox="0 0 30 26.64" enable-background="new 0 0 30 26.64" xml:space="preserve">
<path fill="#441F1F" d="M0.538,26.638h23.472c0.297,0,0.537-0.237,0.537-0.529v-7.515h4.917c0.297,0,0.537-0.237,0.537-0.529V0.527
	c0-0.292-0.239-0.529-0.537-0.529H5.991c-0.296,0-0.537,0.237-0.537,0.529V7.85c0,0.068,0.016,0.132,0.04,0.192H0.538
	c-0.296,0-0.537,0.237-0.537,0.529v17.538C0.001,26.402,0.241,26.638,0.538,26.638z M6.528,7.85V1.056h22.399v16.48h-4.381V8.571
	c0-0.292-0.24-0.529-0.537-0.529H6.489C6.512,7.982,6.528,7.917,6.528,7.85z M1.074,9.1h22.399v16.48H1.074V9.1z"/>
<path fill="#441F1F" d="M11.359,10.96H3.086c-0.296,0-0.537,0.237-0.537,0.529v8.159c0,0.292,0.24,0.529,0.537,0.529h8.273
	c0.297,0,0.537-0.237,0.537-0.529V11.49C11.896,11.197,11.656,10.96,11.359,10.96z M10.823,19.12h-7.2v-7.101h7.2V19.12
	L10.823,19.12z"/>
<path fill="#441F1F" d="M21.863,16.202H13.59c-0.297,0-0.537,0.237-0.537,0.529v7.117c0,0.292,0.239,0.529,0.537,0.529h8.273
	c0.297,0,0.537-0.236,0.537-0.529v-7.117C22.4,16.439,22.16,16.202,21.863,16.202z M21.327,23.318h-7.201V17.26h7.201V23.318z"/>
<path fill="#441F1F" d="M11.359,20.979H3.086c-0.296,0-0.537,0.237-0.537,0.529v1.877c0,0.292,0.24,0.529,0.537,0.529h8.273
	c0.297,0,0.537-0.237,0.537-0.529v-1.877C11.896,21.217,11.656,20.979,11.359,20.979z M10.823,22.856h-7.2v-0.817h7.2V22.856
	L10.823,22.856z"/>
<path fill="#441F1F" d="M21.863,12.542H13.59c-0.297,0-0.537,0.237-0.537,0.529v1.876c0,0.292,0.239,0.529,0.537,0.529h8.273
	c0.297,0,0.537-0.237,0.537-0.529v-1.876C22.4,12.779,22.16,12.542,21.863,12.542z M21.327,14.419h-7.201v-0.818h7.201V14.419z"/>
<path fill="#441F1F" d="M22.243,9.843c-0.209-0.207-0.549-0.207-0.758,0l-0.267,0.262l-0.265-0.262c-0.21-0.207-0.549-0.207-0.759,0
	c-0.21,0.207-0.21,0.541,0,0.748l0.265,0.262l-0.265,0.262c-0.21,0.207-0.21,0.542,0,0.749c0.104,0.103,0.242,0.155,0.379,0.155
	c0.137,0,0.274-0.052,0.379-0.155l0.265-0.263l0.267,0.263c0.104,0.103,0.242,0.155,0.379,0.155c0.138,0,0.275-0.052,0.379-0.155
	c0.21-0.207,0.21-0.542,0-0.749l-0.266-0.262l0.266-0.262C22.453,10.384,22.453,10.049,22.243,9.843z"/>
<path fill="#441F1F" d="M27.854,6.903V5.027c0-0.292-0.239-0.529-0.537-0.529h-8.274c-0.297,0-0.536,0.237-0.536,0.529v1.876
	c0,0.292,0.239,0.529,0.536,0.529h8.274C27.614,7.432,27.854,7.196,27.854,6.903z M26.781,6.374H19.58V5.556h7.201V6.374z"/>
<path fill="#441F1F" d="M17.727,4.498H9.453c-0.296,0-0.536,0.237-0.536,0.529v1.876c0,0.292,0.24,0.529,0.536,0.529h8.274
	c0.297,0,0.537-0.237,0.537-0.529V5.027C18.264,4.735,18.024,4.498,17.727,4.498z M17.19,6.374H9.99V5.556h7.201V6.374z"/>
<path fill="#441F1F" d="M25.647,3.819c0.104,0.103,0.241,0.155,0.379,0.155s0.275-0.052,0.379-0.155l0.266-0.263l0.266,0.263
	c0.105,0.103,0.242,0.155,0.379,0.155s0.275-0.052,0.379-0.155c0.21-0.207,0.21-0.542,0-0.749L27.43,2.808l0.266-0.263
	c0.21-0.206,0.21-0.541,0-0.748c-0.21-0.208-0.548-0.208-0.759,0L26.671,2.06l-0.266-0.262c-0.209-0.208-0.548-0.208-0.758,0
	c-0.21,0.207-0.21,0.542,0,0.748l0.266,0.263L25.647,3.07C25.437,3.277,25.437,3.613,25.647,3.819z"/>
</svg>
