<?xml version="1.0" encoding="utf-8"?>
<!-- Generator: Adobe Illustrator 16.0.0, SVG Export Plug-In . SVG Version: 6.00 Build 0)  -->
<!DOCTYPE svg PUBLIC "-//W3C//DTD SVG 1.1//EN" "http://www.w3.org/Graphics/SVG/1.1/DTD/svg11.dtd">
<svg version="1.1" id="Layer_1" xmlns="http://www.w3.org/2000/svg" xmlns:xlink="http://www.w3.org/1999/xlink" x="0px" y="0px"
	 width="26.4px" height="25.92px" viewBox="0 0 26.4 25.92" enable-background="new 0 0 26.4 25.92" xml:space="preserve">
<path fill="#de703c" d="M17.811,8.786c-0.641,0-1.287,0.073-1.92,0.217l-0.969,0.221l4.708,9.391H9.254l0.267,0.983
	c1.011,3.722,4.42,6.322,8.29,6.322c4.736,0,8.589-3.843,8.589-8.567S22.547,8.786,17.811,8.786z M17.811,24.362
	c-2.813,0-5.329-1.679-6.435-4.189h10.78l-4.916-9.806c0.19-0.016,0.38-0.023,0.57-0.023c3.875,0,7.027,3.144,7.027,7.009
	C24.838,21.218,21.686,24.362,17.811,24.362z M8.551,0L0,17.058h17.103L8.551,0z M8.551,3.482L14.576,15.5H2.527L8.551,3.482z"/>
</svg>
