<?xml version="1.0" encoding="utf-8"?>
<!-- Generator: Adobe Illustrator 16.0.0, SVG Export Plug-In . SVG Version: 6.00 Build 0)  -->
<!DOCTYPE svg PUBLIC "-//W3C//DTD SVG 1.1//EN" "http://www.w3.org/Graphics/SVG/1.1/DTD/svg11.dtd">
<svg version="1.1" id="Layer_1" xmlns="http://www.w3.org/2000/svg" xmlns:xlink="http://www.w3.org/1999/xlink" x="0px" y="0px"
	 width="50px" height="64px" viewBox="0 0 18.24 23.28" enable-background="new 0 0 18.24 23.28" xml:space="preserve">
<path fill="#3a5465" d="M9.862,21.344c-0.293-0.52-0.449-0.682-0.525-0.758c-0.042-0.043-0.099-0.102-0.145-0.182
	c-0.359-0.303-0.52-0.809-0.492-1.204c0.008-0.124,0.041-0.233,0.083-0.336H1.259V2.861h10.566v11.946
	c0.002,0.008,0.004,0.01,0.007,0.017c0.18,0.37,0.417,0.855,0.6,1.219c0.084-0.056,0.179-0.109,0.282-0.149
	c0.095-0.038,0.223-0.074,0.373-0.084V1.695C13.085,0.76,12.333,0,11.403,0H1.679C0.75,0-0.002,0.76-0.002,1.695v19.889
	c0,0.938,0.752,1.696,1.681,1.696h9.725c0.356,0,0.686-0.113,0.958-0.304c-0.409-0.166-0.867-0.399-1.332-0.743
	C10.124,21.812,9.923,21.505,9.862,21.344z M10.294,1.062c0.237,0,0.432,0.194,0.432,0.434c0,0.241-0.193,0.432-0.432,0.432
	c-0.238,0-0.43-0.191-0.43-0.432C9.864,1.256,10.057,1.062,10.294,1.062z M4.288,1.228h4.508v0.494H4.288V1.228z M8.594,21.472
	H4.488V20.2h4.105V21.472z"/>
<path fill="#3a5465" d="M2.829,4.719h2.925v3.206H2.829V4.719z"/>
<path fill="#3a5465" d="M5.944,8.308c0.104,0,0.19-0.086,0.19-0.192v-3.59c0-0.105-0.086-0.192-0.19-0.192H2.638
	c-0.105,0-0.191,0.087-0.191,0.192v3.59c0,0.106,0.086,0.192,0.191,0.192H5.944z M2.638,4.525h3.307v3.59H2.638V4.525z"/>
<path fill="#3a5465" d="M10.497,9.482H2.689c-0.281,0-0.509,0.23-0.509,0.514s0.228,0.511,0.509,0.511h7.808
	c0.282,0,0.509-0.228,0.509-0.511S10.778,9.482,10.497,9.482z"/>
<path fill="#3a5465" d="M9.596,12.638c0.244-0.095,0.504-0.064,0.736,0.028h0.113c0.282,0,0.51-0.229,0.51-0.514
	c0-0.283-0.229-0.512-0.51-0.512H2.638c-0.282,0-0.509,0.23-0.509,0.512c0,0.285,0.228,0.514,0.509,0.514H9.54
	C9.56,12.658,9.578,12.645,9.596,12.638z"/>
<path fill="#3a5465" d="M2.638,13.843c-0.282,0-0.509,0.229-0.509,0.512s0.228,0.513,0.509,0.513h5.76
	c-0.075-0.202-0.15-0.402-0.229-0.622c-0.042-0.146-0.071-0.282-0.09-0.403H2.638z"/>
<path fill="#3a5465" d="M18.242,21.462l-0.131-0.711c0.018-1.826-1.277-3.757-1.277-3.757c-0.456-1.15-1.7-0.638-1.7-0.638
	c-0.846-0.82-1.469,0.151-1.469,0.151c-0.949-0.767-1.486,0.376-1.486,0.376c-0.126,0.022-2.028-3.278-2.128-3.246
	c-0.396-0.488-1.389-0.75-0.8,0.726c1.188,2.47,1.911,3.692,1.911,3.692c0.013,0.174,1.337,2.164,0.883,2.418
	c-0.347-0.021-0.999-0.572-0.999-0.572c-0.004,0.016-0.812-0.627-0.828-0.621C9,18.624,9.166,20.064,9.795,20.343
	c0.031,0.167,0.177,0.057,0.821,0.982c0.094,0.241,1.021,0.555,1.021,0.555c1.346,0.815,2.596,0.784,2.596,0.784
	c0.685,0.165,0.535,0.546,0.535,0.546L18.242,21.462L18.242,21.462z"/>
</svg>
