<?xml version="1.0" encoding="utf-8"?>
<!-- Generator: Adobe Illustrator 16.0.0, SVG Export Plug-In . SVG Version: 6.00 Build 0)  -->
<!DOCTYPE svg PUBLIC "-//W3C//DTD SVG 1.1//EN" "http://www.w3.org/Graphics/SVG/1.1/DTD/svg11.dtd">
<svg version="1.1" id="Layer_1" xmlns="http://www.w3.org/2000/svg" xmlns:xlink="http://www.w3.org/1999/xlink" x="0px" y="0px"
	 width="50px" height="50px" viewBox="0 0 72.48 72.48" enable-background="new 0 0 72.48 72.48" xml:space="preserve">
<path fill="#0db376" d="M17.621,24.082c0.791,0,1.555,0.12,2.274,0.341c2.716-3.044,5.728-5.813,8.99-8.271
	c-0.136-0.577-0.217-1.174-0.217-1.792c0-0.854,0.145-1.675,0.402-2.444c-3.653-2.621-7.628-4.821-11.854-6.521
	c-3.964,2.45-7.42,5.643-10.174,9.385c2.045,3.62,4.477,6.998,7.239,10.071C15.292,24.362,16.423,24.082,17.621,24.082z M9.91,31.79
	c0-1.083,0.226-2.111,0.628-3.047c-2.475-2.716-4.716-5.647-6.68-8.773C1.395,24.863,0,30.386,0,36.237
	c0,6.777,1.864,13.116,5.102,18.541c1.156-6.521,3.351-12.68,6.384-18.331C10.5,35.152,9.91,33.544,9.91,31.79z M36.378,6.648
	c2.037,0,3.884,0.794,5.261,2.085c4.023-1.731,8.26-3.057,12.667-3.907c-5.319-3.065-11.485-4.828-18.067-4.828
	c-4.486,0-8.78,0.822-12.747,2.314c3.148,1.552,6.148,3.368,8.97,5.414C33.611,7.045,34.947,6.648,36.378,6.648z M47.91,42.965
	c0.479-0.999,1.161-1.882,2.003-2.584c-2.276-7.005-5.881-13.41-10.525-18.921c-0.924,0.392-1.941,0.61-3.01,0.61
	c-1.672,0-3.216-0.539-4.479-1.443c-2.794,2.124-5.381,4.505-7.732,7.104c0.734,1.181,1.165,2.57,1.165,4.06
	c0,0.807-0.124,1.582-0.353,2.312C31.742,38.621,39.524,41.718,47.91,42.965z M57.91,53.373c0.106,1.46,0.163,2.933,0.163,4.419
	c0,2.616-0.167,5.192-0.482,7.723c6.144-4.486,10.825-10.86,13.184-18.271c-2.794,0.677-5.663,1.159-8.589,1.44
	C61.497,50.794,59.927,52.501,57.91,53.373z M46.102,48.147c-8.944-1.482-17.24-4.895-24.458-9.785
	c-1.171,0.718-2.546,1.141-4.021,1.141c-0.542,0-1.07-0.058-1.582-0.164c-3.456,6.552-5.665,13.861-6.3,21.608
	c3.451,3.7,7.661,6.68,12.39,8.683C28.001,60.598,36.211,53.13,46.102,48.147z M60.567,9.378c-5.807,0.56-11.354,2.018-16.518,4.208
	c0.028,0.254,0.04,0.511,0.04,0.772c0,1.217-0.289,2.364-0.792,3.388c5.159,6.056,9.166,13.115,11.697,20.844
	c3.134,0.055,5.814,1.977,6.967,4.704c3.489-0.354,6.886-1.021,10.159-1.984c0.232-1.657,0.36-3.349,0.36-5.073
	C72.48,25.586,67.884,16.008,60.567,9.378z M49.98,52.267c-9.232,4.324-16.953,10.986-22.543,19.129
	c2.817,0.704,5.765,1.083,8.802,1.083c5.466,0,10.647-1.217,15.294-3.386c0.747-3.652,1.142-7.43,1.142-11.301
	c0-1.398-0.062-2.782-0.167-4.155C51.576,53.337,50.722,52.871,49.98,52.267z"/>
</svg>
